<?xml version="1.0" encoding="UTF-8" standalone="no"?>
<svg width="35px" height="18px" viewBox="0 0 35 18" version="1.1" xmlns="http://www.w3.org/2000/svg" xmlns:xlink="http://www.w3.org/1999/xlink">
    <!-- Generator: Sketch 39.1 (31720) - http://www.bohemiancoding.com/sketch -->
    <title>Key Icon</title>
    <desc>Created with Sketch.</desc>
    <defs>
        <path d="M16.5753755,12.2017163 C15.3818785,15.3048245 12.3727248,17.5070305 8.84921837,17.5070305 C4.27906227,17.5070305 0.57421875,13.802187 0.57421875,9.23203087 C0.57421875,4.66187477 4.27906227,0.95703125 8.84921837,0.95703125 C11.9121365,0.95703125 14.586384,2.62112801 16.0171704,5.09453108 L32.4811167,5.09453126 L34.9402591,8.64812387 L32.4811167,12.2017165 L29.102437,12.2017164 L27.8279875,10.8395234 L26.4397581,12.2017164 L23.6036424,12.2017163 L22.1702321,10.8395234 L20.7845812,12.2017163 L16.5753755,12.2017163 Z M7.37229116,10.4211552 C8.08301809,10.4211552 8.65917611,9.84499719 8.65917611,9.13427026 C8.65917611,8.42354333 8.08301809,7.84738531 7.37229116,7.84738531 C6.66156422,7.84738531 6.08540621,8.42354333 6.08540621,9.13427026 C6.08540621,9.84499719 6.66156422,10.4211552 7.37229116,10.4211552 Z" id="path-1"></path>
        <mask id="mask-2" maskContentUnits="userSpaceOnUse" maskUnits="objectBoundingBox" x="0" y="0" width="34.3660403" height="16.5499992" fill="white">
            <use xlink:href="#path-1"></use>
        </mask>
    </defs>
    <g id="Current" stroke="none" stroke-width="1" fill="none" fill-rule="evenodd">
        <g id="Key-Icon" stroke="#4A4A4A" stroke-width="2.8">
            <use id="Combined-Shape" mask="url(#mask-2)" transform="translate(17.757239, 9.232031) rotate(-360.000000) translate(-17.757239, -9.232031) " xlink:href="#path-1"></use>
        </g>
    </g>
</svg>